<svg width="420" height="462" viewBox="0 0 420 462" fill="none" xmlns="http://www.w3.org/2000/svg">
<path d="M345.5 382.355C304.353 382.355 271 349.003 271 307.855C271 266.708 304.353 233.355 345.5 233.355C386.647 233.355 420 266.708 420 307.855C420 349.003 386.647 382.355 345.5 382.355ZM327.415 300.424L345.5 282.339L363.594 300.433L374.117 289.91L345.5 261.293L316.892 289.901L327.415 300.424ZM298.938 307.855L309.461 318.379L319.984 307.855L309.461 297.332L298.938 307.855ZM327.415 315.287L316.878 325.796L316.892 325.81L345.5 354.418L374.117 325.801V325.796L363.594 315.273L345.5 333.372L327.415 315.287ZM371.016 307.855L381.539 318.379L392.062 307.855L381.539 297.332L371.016 307.855ZM356.172 307.846H356.177L345.5 297.174L337.608 305.062L336.7 305.97L334.833 307.841L334.814 307.855L334.833 307.869L345.495 318.537L356.177 307.86L356.181 307.855L356.172 307.851V307.846Z" fill="gold"/>
<circle cx="345.549" cy="152.42" r="74.4505" fill="#2F80ED"/>
<circle cx="74.4505" cy="307.806" r="74.4505" fill="white"/>
<g clip-path="url(#clip0)">
<path fill-rule="evenodd" clip-rule="evenodd" d="M210 305.355C168.577 305.355 135 271.779 135 230.355C135 188.932 168.577 155.355 210 155.355C251.423 155.355 285 188.932 285 230.355C285 271.779 251.423 305.355 210 305.355ZM243.698 221.074C245.17 211.249 237.684 205.966 227.456 202.441L230.775 189.129L222.675 187.113L219.441 200.074C217.312 199.54 215.128 199.043 212.948 198.546L216.206 185.501L208.106 183.48L204.787 196.788C203.025 196.385 201.291 195.991 199.613 195.569L199.622 195.527L188.447 192.738L186.291 201.391C186.291 201.391 192.305 202.769 192.178 202.854C195.459 203.674 196.05 205.844 195.952 207.569L192.173 222.733C192.398 222.79 192.689 222.874 193.017 223.001L192.159 222.79L186.862 244.033C186.459 245.027 185.442 246.523 183.145 245.955C183.23 246.073 177.258 244.488 177.258 244.488L173.236 253.76L183.783 256.39C185.742 256.882 187.664 257.398 189.553 257.88L186.202 271.343L194.297 273.358L197.616 260.046C199.828 260.641 201.975 261.194 204.075 261.719L200.766 274.976L208.866 276.991L212.217 263.557C226.036 266.173 236.423 265.118 240.797 252.621C244.322 242.562 240.623 236.754 233.353 232.971C238.65 231.752 242.634 228.269 243.698 221.074ZM225.183 247.033C222.684 257.098 205.739 251.655 200.245 250.291L204.698 232.455C210.192 233.829 227.803 236.543 225.183 247.033ZM227.691 220.929C225.408 230.083 211.308 225.429 206.738 224.29L210.769 208.118C215.339 209.257 230.072 211.38 227.691 220.929Z" fill="#F2994A"/>
</g>
<circle cx="74.8196" cy="152.42" r="74.4505" fill="#F2C94C"/>
<circle cx="210.185" cy="74.4505" r="74.4505" fill="#BB6BD9"/>
<g clip-path="url(#clip1)">
<path d="M186.085 108.28C182.489 108.216 179.056 106.755 176.515 104.202C173.928 101.601 172.478 98.0798 172.484 94.4113M186.085 108.28L165 75.41C167.027 75.5286 168.933 76.4188 170.324 77.898C171.716 79.3771 172.489 81.3328 172.484 83.3638V94.4113M186.085 108.28V108.283H186.285M186.085 108.28L186.285 108.283M172.484 94.4113H172.284V94.411M172.484 94.4113L172.284 94.411M172.284 94.411V83.3638V83.3633C172.289 81.3835 171.536 79.4769 170.179 78.035C168.822 76.5931 166.965 75.7253 164.988 75.6097L164.789 75.5981L164.8 75.3991L164.915 73.3035M172.284 94.411L185.7 40.2282C183.937 40.2274 182.191 40.5743 180.562 41.249C178.934 41.9236 177.454 42.9128 176.208 44.16C174.962 45.4072 173.974 46.8878 173.3 48.5171C172.627 50.1465 172.282 51.8926 172.284 53.6556M172.284 53.6556V53.6554H172.484L172.284 53.6556ZM172.284 53.6556V63.2515M172.284 63.2515C172.283 65.2283 171.527 67.13 170.171 68.5684C168.815 70.0069 166.961 70.8736 164.988 70.9917L164.789 71.0035L164.8 71.2022L164.915 73.3035M172.284 63.2515L172.484 63.2516H172.284V63.2515ZM164.915 73.3035L164.916 73.2926L165.115 73.3035L164.916 73.3144L164.915 73.3035ZM186.285 108.283L186.286 108.083C186.285 108.083 186.285 108.083 186.285 108.083M186.285 108.283V108.083M186.285 108.083V104.064C183.741 104.059 181.303 103.047 179.504 101.248C177.706 99.4495 176.693 97.0113 176.689 94.4675L186.285 108.083ZM232.522 40.2282H232.722H234.365H234.365C237.915 40.2373 241.316 41.6557 243.82 44.1716C246.324 46.6875 247.726 50.0949 247.719 53.6445V63.2516V63.2518C247.717 65.2295 248.471 67.1329 249.828 68.572C251.184 70.0111 253.04 70.8768 255.014 70.9916L255.213 71.0032L255.202 71.2022L255.088 73.3035L255.202 75.3991L255.213 75.5978L255.015 75.6097C253.041 75.7277 251.188 76.5945 249.832 78.0329C248.476 79.4714 247.72 81.3731 247.719 83.3499V94.411V94.4113H247.519C247.524 98.0796 246.074 101.6 243.487 104.201C240.946 106.754 237.514 108.215 233.918 108.28L232.522 40.2282ZM232.522 40.2282V40.4282V44.6469V44.8469H232.722H234.361M232.522 40.2282L248.283 73.3029M234.365 40.4282C237.861 40.4371 241.211 41.8344 243.678 44.3127C246.145 46.791 247.526 50.1475 247.519 53.6441V63.2516C247.517 65.2803 248.291 67.233 249.682 68.7092C251.074 70.1855 252.978 71.0735 255.003 71.1913L234.365 40.4282ZM234.365 40.4282H232.922H232.722V40.6282V44.4469V44.6469H232.922H234.362M234.365 40.4282L243.314 53.6554M243.314 53.6554C243.321 51.2739 242.382 48.9871 240.703 47.2979C239.024 45.6086 236.743 44.6551 234.362 44.6469M243.314 53.6554V63.2376C243.314 67.1937 245.235 70.8974 248.457 73.1812L243.314 53.6554ZM234.362 44.6469L234.361 44.8469C234.361 44.8469 234.361 44.8469 234.361 44.8469M234.362 44.6469V44.8469H234.361M234.361 44.8469C236.69 44.855 238.92 45.7873 240.561 47.4389C242.202 49.0905 243.121 51.3263 243.114 53.6548V53.6554V63.2376C243.114 67.2348 245.044 70.9785 248.283 73.3029M248.283 73.3029C246.721 74.416 245.44 75.8793 244.542 77.5771C243.6 79.3602 243.109 81.3474 243.114 83.3643V94.4672L248.283 73.3029ZM187.34 44.6469V44.4469L187.14 44.6469H187.34ZM188.453 57.1932H187.948L188.317 57.539L201.353 69.7678L201.353 69.7678L201.355 69.7704C203.734 71.9175 206.825 73.106 210.03 73.106C213.234 73.106 216.325 71.9175 218.704 69.7704L218.704 69.7704L218.707 69.7678L231.745 57.5391L232.114 57.1932H231.608H225.353H225.275L225.217 57.2466L215.27 66.4853C215.27 66.4854 215.27 66.4855 215.27 66.4856C212.3 69.2269 207.703 69.2269 204.733 66.4858C204.733 66.4857 204.733 66.4855 204.733 66.4853L194.845 57.247L194.787 57.1932H194.708H188.453ZM194.783 91.4608L204.786 82.1021C204.786 82.1018 204.786 82.1015 204.787 82.1013C207.773 79.36 212.342 79.3601 215.326 82.1012C215.326 82.1014 215.326 82.1017 215.327 82.102L225.27 91.4604L225.328 91.5147H225.407H231.662H232.167L231.799 91.1689L218.704 78.8811L218.702 78.8796C217.458 77.7386 216.002 76.8543 214.416 76.2772C212.83 75.7002 211.146 75.4418 209.46 75.5168L209.46 75.5169C206.446 75.6497 203.575 76.8403 201.351 78.8795L201.35 78.8811L188.255 91.1689L187.886 91.5147H188.392H194.647H194.726L194.783 91.4608Z" fill="white" stroke="white" stroke-width="0.4"/>
</g>
<g clip-path="url(#clip2)">
<rect x="161" y="338.355" width="97" height="97" fill="white"/>
<path fill-rule="evenodd" clip-rule="evenodd" d="M210 461.355C168.577 461.355 135 427.779 135 386.355C135 344.932 168.577 311.355 210 311.355C251.423 311.355 285 344.932 285 386.355C285 427.779 251.423 461.355 210 461.355ZM210 339.48L163.125 386.355L210 433.23L256.875 386.355L210 339.48Z" fill="#1059BC"/>
</g>
<path d="M63.5334 117.955L46.3334 186.755H106.533M37.7334 158.089L72.1334 140.889" stroke="white" stroke-width="10.13"/>
<g clip-path="url(#clip3)">
<path d="M345.795 174.74L318.168 158.436L345.778 197.358L373.42 158.436L345.778 174.74H345.795ZM346.206 107.355L318.59 153.191L346.206 169.523L373.833 153.208L346.206 107.355Z" fill="white"/>
</g>
<path d="M74.5 382.355C33.3527 382.355 0 349.003 0 307.855C0 266.708 33.3527 233.355 74.5 233.355C115.647 233.355 149 266.708 149 307.855C149 349.003 115.647 382.355 74.5 382.355ZM49.2259 287.121L37.7249 339.662C37.6406 339.984 37.6658 340.325 37.7965 340.631C37.9271 340.937 38.1559 341.191 38.4467 341.353L73.7084 363.446C73.9692 363.609 74.2486 363.679 74.514 363.679C74.8009 363.682 75.0825 363.601 75.3242 363.446L110.586 341.353C110.876 341.19 111.104 340.936 111.233 340.63C111.363 340.324 111.388 339.984 111.303 339.662L99.8021 287.121C99.7583 286.902 99.666 286.695 99.532 286.516L75.7386 254.006C75.6011 253.81 75.4172 253.652 75.2036 253.545C74.9899 253.437 74.753 253.385 74.514 253.391C74.2758 253.385 74.0398 253.439 73.827 253.546C73.6142 253.653 73.4311 253.811 73.294 254.006L49.5006 286.521C49.3649 286.699 49.271 286.906 49.2259 287.126V287.121ZM42.7304 330.736L50.958 293.16L55.6608 307.925L42.7304 330.736ZM41.7247 338.559L56.8901 311.795L65.411 338.554H41.72L41.7247 338.559ZM44.3554 341.539H66.3609L71.8459 358.762L44.3554 341.534V341.539ZM57.6583 304.391L52.3363 287.685L73.01 259.444V277.306L57.6583 304.391ZM74.514 357.328L69.4852 341.534H79.5427L74.514 357.328ZM77.1867 358.762L82.6717 341.534H104.677L77.1867 358.762ZM98.0746 293.16L106.298 330.736L93.3718 307.925L98.0746 293.165V293.16ZM91.3696 304.391L76.0226 277.31V259.444L96.6963 287.685L91.3696 304.391ZM107.303 338.554H83.6262L92.1472 311.795L107.308 338.554H107.303ZM74.514 280.691L90.1403 308.261L80.4926 338.554H68.54L58.8923 308.261L74.514 280.691Z" fill="black"/>
<defs>
<clipPath id="clip0">
<rect width="150" height="150" fill="white" transform="translate(135 155.355)"/>
</clipPath>
<clipPath id="clip1">
<rect width="90" height="90" fill="white" transform="translate(165 29.3553)"/>
</clipPath>
<clipPath id="clip2">
<rect width="150" height="150" fill="white" transform="translate(135 311.355)"/>
</clipPath>
<clipPath id="clip3">
<rect width="90" height="90" fill="white" transform="translate(301 107.355)"/>
</clipPath>
</defs>
</svg>
